<?xml version="1.0" encoding="UTF-8"?>
<svg width="492px" height="437px" viewBox="0 0 492 437" version="1.1" xmlns="http://www.w3.org/2000/svg" xmlns:xlink="http://www.w3.org/1999/xlink">
    <!-- Generator: Sketch 51.2 (57519) - http://www.bohemiancoding.com/sketch -->
    <title>jira</title>
    <desc>Created with Sketch.</desc>
    <defs>
        <linearGradient x1="98.0308675%" y1="0.160599572%" x2="58.8877062%" y2="40.7655246%" id="linearGradient-1">
            <stop stop-color="#0052CC" offset="18%"></stop>
            <stop stop-color="#2684FF" offset="100%"></stop>
        </linearGradient>
        <linearGradient x1="100.665247%" y1="0.45503212%" x2="55.4018095%" y2="44.7269807%" id="linearGradient-2">
            <stop stop-color="#0052CC" offset="18%"></stop>
            <stop stop-color="#2684FF" offset="100%"></stop>
        </linearGradient>
    </defs>
    <g id="jira" stroke="none" stroke-width="1" fill="none" fill-rule="evenodd">
        <g id="Jira-blue" transform="translate(46.000000, 151.000000)" fill-rule="nonzero">
            <path d="M204.811321,13.2222222 L219.754717,13.2222222 L219.754717,89.1744444 C219.754717,109.291111 210.962264,123.174444 190.358491,123.174444 C184.265507,123.266747 178.202123,122.308307 172.433962,120.341111 L172.433962,105.777778 C177.354402,107.687099 182.590921,108.648408 187.867925,108.611111 C200.490566,108.611111 204.849057,101.055556 204.849057,90.1566667 L204.811321,13.2222222 Z" id="Shape" fill="#253858"></path>
            <path d="M246.981132,7.40444444 C249.677833,7.21125688 252.325452,8.19980864 254.237183,10.1136641 C256.148915,12.0275196 257.136369,14.6780807 256.943396,17.3777778 C256.943396,22.8858977 252.483139,27.3511111 246.981132,27.3511111 C241.479126,27.3511111 237.018868,22.8858977 237.018868,17.3777778 C236.825895,14.6780807 237.813349,12.0275196 239.725081,10.1136641 C241.636812,8.19980864 244.284431,7.21125688 246.981132,7.40444444 Z M239.622642,39.3077778 L253.90566,39.3077778 L253.90566,122.418889 L239.622642,122.418889 L239.622642,39.3077778 Z" id="Shape" fill="#253858"></path>
            <path d="M275.471698,39.3077778 L289.415094,39.3077778 L289.415094,53.9277778 C294.226415,44.1244444 302.622642,37.1355556 318.811321,38.1366667 L318.811321,52.0955556 C300.54717,50.2066667 289.415094,55.76 289.415094,73.3644444 L289.415094,122.475556 L275.471698,122.475556 L275.471698,39.3077778 Z" id="Shape" fill="#253858"></path>
            <path d="M385.773585,107.458889 C380.45283,118.433333 370.490566,124.081111 357.716981,124.081111 C335.641509,124.081111 324.509434,105.305556 324.509434,80.8633333 C324.509434,57.4222222 336.132075,37.6455556 359.377358,37.6455556 C371.490566,37.6455556 380.792453,43.1233333 385.792453,53.9277778 L385.792453,39.3077778 L400,39.3077778 L400,122.418889 L385.716981,122.418889 L385.773585,107.458889 Z M361.528302,110.783333 C374.320755,110.783333 385.773585,102.642222 385.773585,84.1877778 L385.773585,77.5388889 C385.773585,59.0844444 375.320755,50.9433333 363.132075,50.9433333 C347.018868,50.9433333 338.716981,61.5777778 338.716981,80.8633333 C338.792453,100.81 346.754717,110.783333 361.54717,110.783333 L361.528302,110.783333 Z" id="Shape" fill="#253858"></path>
            <path d="M129.830189,0 L64.5849057,0 C64.5849057,7.82005555 67.6879628,15.319822 73.2114399,20.8494363 C78.734917,26.3790506 86.2263596,29.4855556 94.0377358,29.4855556 L106.056604,29.4855556 L106.056604,41.1022222 C106.067011,57.3718951 119.238951,70.5584696 135.490566,70.5688889 L135.490566,5.66666667 C135.490566,2.53705308 132.956329,1.91633563e-16 129.830189,0 Z" id="Shape" fill="#2684FF"></path>
            <path d="M97.5471698,32.5455556 L32.3018868,32.5455556 C32.3122945,48.8152284 45.4842335,62.001803 61.7358491,62.0122222 L73.754717,62.0122222 L73.754717,73.6666667 C73.775539,89.9363342 86.9559236,103.114458 103.207547,103.114444 L103.207547,38.2122222 C103.207547,35.0826086 100.67331,32.5455556 97.5471698,32.5455556 Z" id="Shape" fill="url(#linearGradient-1)"></path>
            <path d="M65.245283,65.0722222 L0,65.0722222 C1.99205322e-15,81.3566449 13.1864812,94.5577778 29.4528302,94.5577778 L41.509434,94.5577778 L41.509434,106.174444 C41.5198056,122.429389 54.6687836,135.609875 70.9056604,135.641111 L70.9056604,70.7388889 C70.9056604,67.6092753 68.3714231,65.0722222 65.245283,65.0722222 Z" id="Shape" fill="url(#linearGradient-2)"></path>
        </g>
    </g>
</svg>