<svg id="Layer_1" data-name="Layer 1" xmlns="http://www.w3.org/2000/svg" width="1.87in" height="1.87in" viewBox="0 0 134.64 134.64"><defs><style>.cls-1,.cls-4{fill:#fff;}.cls-1{opacity:0.32;isolation:isolate;}.cls-2{fill:#75c2d8;}.cls-2,.cls-3,.cls-4{stroke:#3a3a3a;stroke-miterlimit:10;stroke-width:3.6px;}.cls-3{fill:none;}</style></defs><title>expertKnowledgeIcon</title><circle class="cls-1" cx="67.32" cy="67.32" r="67.32"/><path class="cls-2" d="M54.53,23.73A13.09,13.09,0,0,0,42,33.25c-7.69.24-13.77,7.36-13.77,16.13a18.34,18.34,0,0,0,.16,2c-5.59,2.57-9.6,9.63-9.6,18A22.46,22.46,0,0,0,23,82.86,18,18,0,0,0,22.67,89c1,8.84,8.16,15.29,16,14.42a14.68,14.68,0,0,0,14,9.6c8.4,0,14.85-6.38,14.85-14.25V37A13,13,0,0,0,54.79,23.73Z"/><path class="cls-3" d="M54.89,50.33a13.31,13.31,0,0,1-12.75-17.1"/><path class="cls-3" d="M37.78,68.69c4.16,2.49,9,.31,12.46-3.8,4.39-5.19,11.61-7.22,16-2A6.24,6.24,0,0,1,67.47,65"/><path class="cls-3" d="M68,42.67a11.4,11.4,0,0,1-13.13-7.54"/><path class="cls-3" d="M68,90.49A11.4,11.4,0,0,0,54.89,98"/><path class="cls-3" d="M45.39,46.53c-3.8,1-7.6,3.72-7.6,7.6"/><path class="cls-3" d="M39.69,90.24c-3.8-1-7.6-3.72-7.6-7.6"/><path class="cls-3" d="M39.68,105.7a13.65,13.65,0,0,1-2.07-6.91c0-7.87,6.57-14.25,15-14.25v-1.9c0-3.33,4.75-7.6,7.77-7.6"/><path class="cls-3" d="M30.18,61.73a6.65,6.65,0,0,1,0,13.3"/><path class="cls-4" d="M80.7,23.73c6,0,10.55,4,12.18,9.53,7.69.24,14.95,8.17,14.95,16.94a18.37,18.37,0,0,1-.13,2c5.59,2.57,9,8.82,9,17.15a22.46,22.46,0,0,1-4.25,13.52A18,18,0,0,1,112.8,89c-1,8.84-8.15,15.29-16,14.42A15,15,0,0,1,82.6,113c-8.4,0-15.13-6.38-15.13-14.25V37A13.24,13.24,0,0,1,80.68,23.73Z"/><path class="cls-3" d="M95.82,105.7a13.5,13.5,0,0,0,0-13.81"/><path class="cls-3" d="M78.72,46.53c3.8,1,7.6,3.72,7.6,7.6"/><path class="cls-3" d="M69.22,51.39c7.35,0,13.3-5.58,13.3-12.47"/><path class="cls-3" d="M93.92,84.54c-7.76,0-11.4,5-11.4,13.3"/><path class="cls-3" d="M84.43,89.46c-3.5-3.8-10-5.81-17.11-4.76"/><path class="cls-3" d="M96.17,45.66a6.36,6.36,0,0,0,6.06,6.64h5.48"/><path class="cls-3" d="M104.38,63.63a6.65,6.65,0,0,0,0,13.3"/><path class="cls-3" d="M74.92,61.73a6.65,6.65,0,0,1,0,13.3"/><path class="cls-3" d="M82.52,67.43c3.7-2.49,12-2.85,15.2,1.9"/><path class="cls-3" d="M112.47,82.84a13.16,13.16,0,0,1-8.28,4.35"/><line class="cls-3" x1="92.88" y1="33.25" x2="92.88" y2="39.61"/></svg>